<?xml version="1.0" encoding="UTF-8" standalone="no"?>
<!DOCTYPE svg PUBLIC "-//W3C//DTD SVG 1.1//EN" "http://www.w3.org/Graphics/SVG/1.1/DTD/svg11.dtd">
<svg width="100%" height="100%" viewBox="0 0 1000 1000" version="1.1" xmlns="http://www.w3.org/2000/svg" xmlns:xlink="http://www.w3.org/1999/xlink" xml:space="preserve" xmlns:serif="http://www.serif.com/" style="fill-rule:evenodd;clip-rule:evenodd;stroke-linejoin:round;stroke-miterlimit:2;">
    <g transform="matrix(3.08802,0,0,3.08802,-204.053,106.436)">
        <g transform="matrix(0.654755,0,0,0.654755,-1018.25,-604.214)">
            <path d="M1905.5,879.2C1865.51,921.281 1801.92,955.566 1734.01,969.906C1733.96,974.414 1733.69,999.388 1732.41,1114.5C1730.7,1268.05 1877.02,1344.06 1899.74,1355.72C1921.89,1345.75 2071.06,1271.8 2072.76,1118.25C2074.04,1003.14 2074.32,978.161 2074.37,973.654C2006.8,957.822 1944.55,922.151 1905.5,879.2Z" style="fill:rgb(64,169,255);fill-rule:nonzero;"/>
        </g>
        <g transform="matrix(0.654755,0,0,0.654755,-1018.25,-604.214)">
            <path d="M1904.91,906.951C1865.79,942.204 1811.73,969.76 1752.39,984.583L1750.95,1114.69C1750.28,1174.22 1773.69,1228.23 1820.51,1275.23C1851.27,1306.11 1883.7,1325.35 1900.17,1334.01C1900.88,1333.66 1901.66,1333.26 1902.43,1332.87L1905.25,907.256C1905.14,907.153 1905.02,907.054 1904.91,906.951Z" style="fill:rgb(17,204,228);fill-rule:nonzero;"/>
        </g>
        <g transform="matrix(0.654755,0,0,0.654755,-1018.25,-604.214)">
            <path d="M1905.25,907.256L1902.43,1332.87C1919.67,1324.08 1951.02,1305.9 1981.12,1277C2028.97,1231.04 2053.56,1177.56 2054.23,1118.03L2055.67,987.92C1996.84,971.843 1943.55,943.217 1905.25,907.256Z" style="fill:rgb(45,221,244);fill-rule:nonzero;"/>
        </g>
        <g transform="matrix(1.09796,-9.30865e-17,9.30865e-17,1.09796,-1861.97,-1115.87)">
            <path d="M1910.62,1148.36L1910.43,1176.92C1910.4,1180.73 1907.27,1183.87 1903.45,1183.84C1899.57,1183.82 1896.48,1180.64 1896.5,1176.83L1896.69,1148.2C1890.81,1145.52 1886.71,1139.56 1886.75,1132.72C1886.81,1123.37 1894.51,1115.88 1903.9,1115.94C1913.29,1116 1920.83,1123.59 1920.76,1132.94C1920.72,1139.84 1916.6,1145.75 1910.62,1148.36ZM1835.17,1094.33L1834.51,1195.13C1834.43,1206.35 1972.1,1207.25 1972.18,1196.03L1972.84,1095.24L1835.17,1094.33Z" style="fill:white;fill-opacity:0.75;fill-rule:nonzero;"/>
        </g>
        <g transform="matrix(1.09796,-9.30865e-17,9.30865e-17,1.21908,-1862.16,-1239.65)">
            <path d="M1960.84,1087.97L1946.91,1087.88L1946.95,1081.09C1947.11,1057.58 1928.01,1038.32 1904.39,1038.17C1880.77,1038.01 1861.42,1057.02 1861.26,1080.53L1861.22,1087.32L1847.28,1087.23L1847.33,1080.44C1847.53,1049.28 1873.17,1024.09 1904.48,1024.29C1935.79,1024.5 1961.09,1050.02 1960.89,1081.19L1960.84,1087.97Z" style="fill:white;fill-opacity:0.75;fill-rule:nonzero;"/>
        </g>
    </g>
</svg>
