<?xml version="1.0" encoding="UTF-8" standalone="no"?>
<!DOCTYPE svg PUBLIC "-//W3C//DTD SVG 1.1//EN" "http://www.w3.org/Graphics/SVG/1.1/DTD/svg11.dtd">
<svg width="100%" height="100%" viewBox="0 0 1000 240" version="1.1" xmlns="http://www.w3.org/2000/svg" xmlns:xlink="http://www.w3.org/1999/xlink" xml:space="preserve" xmlns:serif="http://www.serif.com/" style="fill-rule:evenodd;clip-rule:evenodd;stroke-linejoin:round;stroke-miterlimit:2;">
    <g transform="matrix(1,0,0,1,-0.174928,-5)">
        <g transform="matrix(1.27488,0,0,1.27488,103.388,-266.17)">
            <g transform="matrix(144,0,0,144,62.3518,360.119)">
                <path d="M0.327,-0.26L0.21,-0.26L0.21,0L0.063,0L0.063,-0.711L0.328,-0.711C0.369,-0.711 0.405,-0.706 0.438,-0.697C0.471,-0.688 0.498,-0.674 0.521,-0.656C0.543,-0.638 0.56,-0.616 0.572,-0.589C0.584,-0.562 0.59,-0.531 0.59,-0.496C0.59,-0.47 0.587,-0.447 0.582,-0.426C0.576,-0.405 0.567,-0.387 0.556,-0.371C0.545,-0.355 0.532,-0.341 0.516,-0.329C0.5,-0.317 0.483,-0.306 0.463,-0.297L0.617,-0.007L0.617,0L0.46,0L0.327,-0.26ZM0.21,-0.379L0.328,-0.379C0.347,-0.379 0.364,-0.381 0.379,-0.386C0.393,-0.392 0.405,-0.399 0.415,-0.408C0.424,-0.417 0.432,-0.428 0.437,-0.441C0.441,-0.454 0.444,-0.468 0.444,-0.484C0.444,-0.518 0.434,-0.544 0.415,-0.563C0.396,-0.583 0.367,-0.592 0.328,-0.592L0.21,-0.592L0.21,-0.379Z" style="fill:rgb(64,169,255);fill-rule:nonzero;"/>
            </g>
            <g transform="matrix(144,0,0,144,154.25,360.119)">
                <path d="M0.297,0.01C0.256,0.01 0.22,0.003 0.187,-0.01C0.155,-0.024 0.127,-0.042 0.105,-0.065C0.082,-0.088 0.065,-0.115 0.053,-0.146C0.041,-0.177 0.035,-0.211 0.035,-0.246L0.035,-0.265C0.035,-0.305 0.041,-0.342 0.052,-0.375C0.064,-0.409 0.08,-0.437 0.102,-0.461C0.123,-0.486 0.149,-0.504 0.179,-0.518C0.21,-0.531 0.244,-0.538 0.282,-0.538C0.32,-0.538 0.353,-0.532 0.382,-0.519C0.411,-0.507 0.436,-0.489 0.455,-0.467C0.475,-0.444 0.49,-0.417 0.5,-0.385C0.51,-0.353 0.515,-0.317 0.515,-0.278L0.515,-0.218L0.178,-0.218C0.181,-0.201 0.185,-0.185 0.192,-0.171C0.199,-0.157 0.208,-0.145 0.219,-0.135C0.23,-0.126 0.243,-0.118 0.257,-0.112C0.272,-0.107 0.288,-0.104 0.307,-0.104C0.332,-0.104 0.356,-0.109 0.378,-0.118C0.4,-0.128 0.418,-0.143 0.434,-0.163L0.503,-0.085C0.495,-0.073 0.484,-0.062 0.472,-0.05C0.459,-0.039 0.444,-0.029 0.427,-0.02C0.41,-0.011 0.39,-0.004 0.368,0.002C0.347,0.007 0.323,0.01 0.297,0.01ZM0.281,-0.424C0.266,-0.424 0.253,-0.421 0.241,-0.416C0.229,-0.41 0.219,-0.403 0.211,-0.393C0.203,-0.384 0.196,-0.372 0.191,-0.359C0.186,-0.346 0.182,-0.331 0.18,-0.314L0.376,-0.314L0.376,-0.326C0.376,-0.34 0.374,-0.353 0.37,-0.365C0.366,-0.377 0.36,-0.387 0.353,-0.396C0.345,-0.405 0.335,-0.412 0.323,-0.417C0.312,-0.421 0.298,-0.424 0.281,-0.424Z" style="fill:rgb(64,169,255);fill-rule:nonzero;"/>
            </g>
            <g transform="matrix(144,0,0,144,232.086,360.119)">
                <path d="M0.444,-0.199L0.132,-0.199L0.026,0L-0.039,0L0.346,-0.711L0.403,-0.711L0.54,0L0.481,0L0.444,-0.199ZM0.159,-0.25L0.434,-0.25L0.364,-0.636L0.159,-0.25Z" style="fill:rgb(64,169,255);fill-rule:nonzero;"/>
            </g>
            <g transform="matrix(144,0,0,144,319.274,360.119)">
                <path d="M0.367,-0.066C0.345,-0.039 0.32,-0.019 0.29,-0.007C0.26,0.005 0.228,0.011 0.193,0.01C0.164,0.009 0.14,0.003 0.121,-0.008C0.102,-0.019 0.087,-0.034 0.077,-0.052C0.066,-0.07 0.059,-0.091 0.056,-0.115C0.053,-0.139 0.053,-0.164 0.056,-0.19L0.112,-0.528L0.17,-0.528L0.114,-0.188C0.112,-0.171 0.112,-0.153 0.113,-0.136C0.115,-0.119 0.118,-0.103 0.125,-0.089C0.132,-0.075 0.141,-0.064 0.154,-0.055C0.167,-0.046 0.184,-0.042 0.205,-0.041C0.222,-0.04 0.24,-0.042 0.258,-0.046C0.276,-0.05 0.293,-0.057 0.309,-0.065C0.325,-0.074 0.339,-0.085 0.351,-0.099C0.363,-0.112 0.372,-0.128 0.377,-0.146L0.443,-0.528L0.501,-0.528L0.41,0L0.353,0L0.367,-0.066Z" style="fill:rgb(64,169,255);fill-rule:nonzero;"/>
            </g>
            <g transform="matrix(144,0,0,144,396.688,360.119)">
                <path d="M0.227,-0.664L0.204,-0.528L0.31,-0.528L0.301,-0.48L0.195,-0.48L0.137,-0.128C0.136,-0.118 0.135,-0.108 0.135,-0.098C0.136,-0.088 0.137,-0.079 0.141,-0.071C0.144,-0.063 0.149,-0.056 0.156,-0.051C0.163,-0.046 0.172,-0.043 0.185,-0.043C0.193,-0.043 0.201,-0.043 0.208,-0.044C0.216,-0.045 0.224,-0.045 0.232,-0.046L0.229,0.001C0.21,0.007 0.191,0.009 0.171,0.009C0.151,0.008 0.134,0.004 0.122,-0.003C0.109,-0.011 0.099,-0.021 0.092,-0.034C0.085,-0.046 0.081,-0.061 0.079,-0.077C0.078,-0.094 0.077,-0.111 0.079,-0.128L0.137,-0.48L0.042,-0.48L0.051,-0.528L0.145,-0.528L0.169,-0.664L0.227,-0.664Z" style="fill:rgb(64,169,255);fill-rule:nonzero;"/>
            </g>
            <g transform="matrix(144,0,0,144,442.25,360.119)">
                <path d="M0.153,-0.439C0.164,-0.454 0.176,-0.467 0.189,-0.479C0.202,-0.492 0.216,-0.502 0.231,-0.511C0.246,-0.52 0.262,-0.527 0.279,-0.531C0.296,-0.536 0.314,-0.538 0.333,-0.538C0.361,-0.537 0.385,-0.532 0.404,-0.521C0.422,-0.511 0.437,-0.497 0.447,-0.479C0.458,-0.461 0.464,-0.441 0.468,-0.417C0.471,-0.394 0.471,-0.369 0.468,-0.344L0.41,0L0.353,0L0.41,-0.345C0.412,-0.363 0.412,-0.381 0.411,-0.398C0.409,-0.415 0.405,-0.43 0.398,-0.444C0.392,-0.457 0.382,-0.467 0.368,-0.475C0.355,-0.483 0.338,-0.487 0.316,-0.488C0.296,-0.488 0.277,-0.485 0.26,-0.478C0.243,-0.472 0.227,-0.462 0.212,-0.451C0.198,-0.439 0.185,-0.426 0.173,-0.41C0.162,-0.395 0.151,-0.379 0.143,-0.362L0.08,0L0.022,0L0.153,-0.75L0.21,-0.75L0.153,-0.439Z" style="fill:rgb(64,169,255);fill-rule:nonzero;"/>
            </g>
            <g transform="matrix(144,0,0,144,519.594,360.119)">
                <path d="M0.263,-0.331L0.176,-0.24L0.176,0L0.083,0L0.083,-0.711L0.176,-0.711L0.176,-0.359L0.253,-0.445L0.492,-0.711L0.605,-0.711L0.326,-0.397L0.627,0L0.515,0L0.263,-0.331Z" style="fill:rgb(64,169,255);fill-rule:nonzero;"/>
            </g>
            <g transform="matrix(144,0,0,144,609.875,360.119)">
                <path d="M0.167,0L0.076,0L0.076,-0.528L0.167,-0.528L0.167,0ZM0.069,-0.668C0.069,-0.683 0.073,-0.695 0.082,-0.706C0.091,-0.716 0.104,-0.721 0.122,-0.721C0.14,-0.721 0.153,-0.716 0.162,-0.706C0.171,-0.695 0.176,-0.683 0.176,-0.668C0.176,-0.654 0.171,-0.642 0.162,-0.632C0.153,-0.622 0.14,-0.617 0.122,-0.617C0.104,-0.617 0.091,-0.622 0.082,-0.632C0.073,-0.642 0.069,-0.654 0.069,-0.668Z" style="fill:rgb(64,169,255);fill-rule:nonzero;"/>
            </g>
            <g transform="matrix(144,0,0,144,644.821,360.119)">
                <path d="M0.191,-0.656L0.191,-0.528L0.29,-0.528L0.29,-0.458L0.191,-0.458L0.191,-0.131C0.191,-0.117 0.193,-0.106 0.196,-0.098C0.199,-0.09 0.203,-0.083 0.209,-0.079C0.214,-0.074 0.22,-0.071 0.227,-0.07C0.234,-0.068 0.242,-0.067 0.249,-0.067C0.257,-0.067 0.264,-0.068 0.273,-0.07C0.281,-0.071 0.287,-0.072 0.292,-0.073L0.292,0C0.285,0.002 0.276,0.004 0.264,0.006C0.253,0.009 0.239,0.01 0.223,0.01C0.206,0.01 0.19,0.007 0.176,0.003C0.161,-0.002 0.148,-0.01 0.137,-0.021C0.126,-0.032 0.117,-0.047 0.11,-0.065C0.104,-0.083 0.101,-0.105 0.101,-0.131L0.101,-0.458L0.004,-0.458L0.004,-0.528L0.101,-0.528L0.101,-0.656L0.191,-0.656Z" style="fill:rgb(64,169,255);fill-rule:nonzero;"/>
            </g>
        </g>
        <g transform="matrix(0.680054,0,0,0.680054,-60.9408,38.328)">
            <g transform="matrix(0.654755,0,0,0.654755,-1018.25,-604.214)">
                <path d="M1905.5,879.2C1865.51,921.281 1801.92,955.566 1734.01,969.906C1733.96,974.414 1733.69,999.388 1732.41,1114.5C1730.7,1268.05 1877.02,1344.06 1899.74,1355.72C1921.89,1345.75 2071.06,1271.8 2072.76,1118.25C2074.04,1003.14 2074.32,978.161 2074.37,973.654C2006.8,957.822 1944.55,922.151 1905.5,879.2Z" style="fill:rgb(64,169,255);fill-rule:nonzero;"/>
            </g>
            <g transform="matrix(0.654755,0,0,0.654755,-1018.25,-604.214)">
                <path d="M1904.91,906.951C1865.79,942.204 1811.73,969.76 1752.39,984.583L1750.95,1114.69C1750.28,1174.22 1773.69,1228.23 1820.51,1275.23C1851.27,1306.11 1883.7,1325.35 1900.17,1334.01C1900.88,1333.66 1901.66,1333.26 1902.43,1332.87L1905.25,907.256C1905.14,907.153 1905.02,907.054 1904.91,906.951Z" style="fill:rgb(104,206,255);fill-rule:nonzero;"/>
            </g>
            <g transform="matrix(0.654755,0,0,0.654755,-1018.25,-604.214)">
                <path d="M1905.25,907.256L1902.43,1332.87C1919.67,1324.08 1951.02,1305.9 1981.12,1277C2028.97,1231.04 2053.56,1177.56 2054.23,1118.03L2055.67,987.92C1996.84,971.843 1943.55,943.217 1905.25,907.256Z" style="fill:rgb(87,230,255);fill-rule:nonzero;"/>
            </g>
            <g transform="matrix(0.654755,-5.55112e-17,5.55112e-17,0.654755,-1018.25,-604.214)">
                <path d="M1910.62,1148.36L1910.43,1176.92C1910.4,1180.73 1907.27,1183.87 1903.45,1183.84C1899.57,1183.82 1896.48,1180.64 1896.5,1176.83L1896.69,1148.2C1890.81,1145.52 1886.71,1139.56 1886.75,1132.72C1886.81,1123.37 1894.51,1115.88 1903.9,1115.94C1913.29,1116 1920.83,1123.59 1920.76,1132.94C1920.72,1139.84 1916.6,1145.75 1910.62,1148.36ZM1835.17,1094.33L1834.51,1195.13C1834.43,1206.35 1972.1,1207.25 1972.18,1196.03L1972.84,1095.24L1835.17,1094.33Z" style="fill:white;fill-opacity:0.75;fill-rule:nonzero;"/>
            </g>
            <g transform="matrix(0.654755,-5.55112e-17,5.55112e-17,0.726983,-1018.37,-678.025)">
                <path d="M1960.84,1087.97L1946.91,1087.88L1946.95,1081.09C1947.11,1057.58 1928.01,1038.32 1904.39,1038.17C1880.77,1038.01 1861.42,1057.02 1861.26,1080.53L1861.22,1087.32L1847.28,1087.23L1847.33,1080.44C1847.53,1049.28 1873.17,1024.09 1904.48,1024.29C1935.79,1024.5 1961.09,1050.02 1960.89,1081.19L1960.84,1087.97Z" style="fill:white;fill-opacity:0.75;fill-rule:nonzero;"/>
            </g>
        </g>
    </g>
</svg>
